<?xml version="1.0" encoding="UTF-8"?>
<svg xmlns="http://www.w3.org/2000/svg" xmlns:xlink="http://www.w3.org/1999/xlink" width="4001" height="4001" viewBox="0 0 4001 4001">
<path fill-rule="evenodd" fill="rgb(99.21875%, 98.046875%, 89.84375%)" fill-opacity="1" d="M 0.78125 0.578125 L 4000.78125 0.578125 L 4000.78125 4000.582031 L 0.78125 4000.582031 L 0.78125 0.578125 "/>
<path fill-rule="evenodd" fill="rgb(100%, 95.701599%, 46.263123%)" fill-opacity="1" d="M 2854.941406 2800.699219 C 2532.398438 3558.453125 1697.589844 3606.132812 1230.570312 3077.058594 L 1973.871094 572.039062 L 2854.941406 2800.699219 "/>
<path fill-rule="evenodd" fill="rgb(99.609375%, 68.943787%, 10.984802%)" fill-opacity="1" d="M 1973.871094 572.039062 L 1230.539062 3077.054688 L 1146.628906 2640.878906 L 1833.140625 795.941406 L 1973.871094 572.039062 "/>
<path fill-rule="evenodd" fill="rgb(99.21875%, 80.46875%, 0%)" fill-opacity="1" d="M 2274.398438 1742.539062 C 2204.289062 1742.539062 2147.449219 1799.410156 2147.449219 1869.539062 C 2147.441406 1939.648438 2204.300781 1996.519531 2274.429688 1996.519531 C 2344.550781 1996.5 2401.410156 1939.671875 2401.410156 1869.539062 C 2401.398438 1799.390625 2344.550781 1742.558594 2274.429688 1742.558594 L 2274.398438 1742.539062 "/>
<path fill-rule="evenodd" fill="rgb(99.21875%, 80.46875%, 0%)" fill-opacity="1" d="M 1896.03125 2354.140625 C 1825.929688 2354.140625 1769.101562 2411 1769.101562 2481.128906 C 1769.078125 2551.261719 1825.941406 2608.109375 1896.070312 2608.109375 C 1966.191406 2608.109375 2023.070312 2551.261719 2023.070312 2481.128906 C 2023.039062 2410.988281 1966.21875 2354.148438 1896.070312 2354.148438 L 1896.03125 2354.140625 "/>
<path fill-rule="evenodd" fill="rgb(99.21875%, 80.46875%, 0%)" fill-opacity="1" d="M 2418.238281 2628.828125 C 2318.761719 2628.828125 2238.140625 2709.480469 2238.140625 2808.949219 C 2238.121094 2908.410156 2318.769531 2989.058594 2418.25 2989.058594 C 2517.71875 2989.050781 2598.359375 2908.421875 2598.359375 2808.949219 C 2598.308594 2709.480469 2517.730469 2628.839844 2418.25 2628.839844 L 2418.238281 2628.828125 "/>
<path fill-rule="evenodd" fill="rgb(99.21875%, 80.46875%, 0%)" fill-opacity="1" d="M 1590.28125 2948.878906 C 1490.808594 2948.878906 1410.179688 3029.523438 1410.179688 3128.996094 C 1410.160156 3228.460938 1490.808594 3309.105469 1590.28125 3309.105469 C 1689.710938 3309.09375 1770.398438 3228.464844 1770.398438 3128.996094 C 1770.359375 3029.519531 1689.75 2948.890625 1590.28125 2948.878906 "/>
<path fill-rule="evenodd" fill="rgb(99.21875%, 80.46875%, 0%)" fill-opacity="1" d="M 1844.199219 1966.980469 C 1794.96875 1966.980469 1755.121094 2006.898438 1755.121094 2056.128906 C 1755.109375 2105.351562 1795.011719 2145.261719 1844.238281 2145.261719 C 1893.429688 2145.230469 1933.378906 2105.351562 1933.378906 2056.128906 C 1933.339844 2006.890625 1893.460938 1967 1844.238281 1967 L 1844.199219 1966.980469 "/>
<path fill-rule="evenodd" fill="rgb(99.21875%, 80.46875%, 0%)" fill-opacity="1" d="M 2099.488281 1317.820312 C 2050.261719 1317.820312 2010.378906 1357.738281 2010.378906 1406.960938 C 2010.351562 1456.179688 2050.269531 1496.101562 2099.5 1496.101562 C 2148.71875 1496.101562 2188.640625 1456.191406 2188.640625 1406.960938 C 2188.628906 1357.730469 2148.730469 1317.828125 2099.5 1317.828125 L 2099.488281 1317.820312 "/>
<path fill-rule="evenodd" fill="rgb(99.21875%, 80.46875%, 0%)" fill-opacity="1" d="M 2379.351562 2276.671875 C 2330.128906 2276.671875 2290.261719 2316.578125 2290.261719 2365.808594 C 2290.261719 2415.011719 2330.160156 2454.941406 2379.371094 2454.941406 C 2428.578125 2454.921875 2468.511719 2415.03125 2468.511719 2365.808594 C 2468.488281 2316.558594 2428.609375 2276.679688 2379.371094 2276.679688 L 2379.351562 2276.671875 "/>
<path fill-rule="evenodd" fill="rgb(99.21875%, 80.46875%, 0%)" fill-opacity="1" d="M 1949.148438 1073.949219 C 1919.828125 1073.949219 1896.070312 1097.75 1896.070312 1127.078125 C 1896.03125 1156.421875 1919.859375 1180.210938 1949.191406 1180.210938 C 1978.53125 1180.191406 2002.320312 1156.429688 2002.320312 1127.078125 C 2002.320312 1097.71875 1978.53125 1073.960938 1949.191406 1073.960938 L 1949.148438 1073.949219 "/>
<path fill-rule="evenodd" fill="rgb(99.21875%, 80.46875%, 0%)" fill-opacity="1" d="M 1544.898438 2736.378906 C 1515.570312 2736.378906 1491.808594 2760.171875 1491.808594 2789.519531 C 1491.78125 2818.851562 1515.589844 2842.628906 1544.921875 2842.628906 C 1574.269531 2842.628906 1598.039062 2818.851562 1598.039062 2789.519531 C 1598.011719 2760.160156 1574.269531 2736.390625 1544.921875 2736.390625 L 1544.898438 2736.378906 "/>
<path fill-rule="evenodd" fill="rgb(99.21875%, 80.46875%, 0%)" fill-opacity="1" d="M 2104.660156 3126.398438 C 2075.339844 3126.398438 2051.570312 3150.1875 2051.570312 3179.527344 C 2051.550781 3208.863281 2075.371094 3232.648438 2104.699219 3232.648438 C 2134.03125 3232.644531 2157.820312 3208.863281 2157.820312 3179.527344 C 2157.78125 3150.183594 2134.03125 3126.40625 2104.699219 3126.40625 L 2104.660156 3126.398438 "/>
<path fill-rule="evenodd" fill="rgb(99.21875%, 80.46875%, 0%)" fill-opacity="1" d="M 1853.308594 1531.328125 C 1783.148438 1531.328125 1726.339844 1588.199219 1726.339844 1658.328125 C 1726.300781 1728.441406 1783.199219 1785.308594 1853.328125 1785.308594 C 1923.460938 1785.289062 1980.320312 1728.460938 1980.320312 1658.328125 C 1980.320312 1588.179688 1923.460938 1531.351562 1853.328125 1531.351562 L 1853.308594 1531.328125 "/>
<path fill-rule="evenodd" fill="rgb(97.264099%, 57.617188%, 12.939453%)" fill-opacity="1" d="M 1342 2514.671875 C 1331.871094 2478.671875 1298.191406 2470.609375 1266.660156 2496.648438 C 1235.148438 2522.679688 1217.75 2572.980469 1227.851562 2608.980469 C 1237.871094 2644.960938 1271.648438 2653.039062 1303.171875 2627 C 1334.679688 2600.960938 1352.078125 2550.671875 1342.011719 2514.671875 L 1342 2514.671875 "/>
<path fill-rule="evenodd" fill="rgb(97.264099%, 57.617188%, 12.939453%)" fill-opacity="1" d="M 1583.121094 1805.628906 C 1579.078125 1791.179688 1565.570312 1787.949219 1552.921875 1798.398438 C 1540.238281 1808.828125 1533.308594 1829.03125 1537.328125 1843.46875 C 1541.359375 1857.898438 1554.921875 1861.160156 1567.570312 1850.710938 C 1580.210938 1840.25 1587.210938 1820.078125 1583.148438 1805.628906 L 1583.121094 1805.628906 "/>
<path fill-rule="evenodd" fill="rgb(97.264099%, 57.617188%, 12.939453%)" fill-opacity="1" d="M 1601.640625 1641.5 C 1595.960938 1621.359375 1577.109375 1616.851562 1559.46875 1631.429688 C 1541.769531 1646 1532.078125 1674.171875 1537.730469 1694.328125 C 1543.359375 1714.46875 1562.25 1719 1579.910156 1704.410156 C 1597.550781 1689.828125 1607.28125 1661.679688 1601.640625 1641.519531 L 1601.640625 1641.5 "/>
<path fill-rule="evenodd" fill="rgb(97.264099%, 57.617188%, 12.939453%)" fill-opacity="1" d="M 1754.800781 1249.269531 C 1748.199219 1225.710938 1726.140625 1220.421875 1705.488281 1237.46875 C 1684.800781 1254.511719 1673.441406 1287.46875 1680.058594 1311.050781 C 1686.640625 1334.621094 1708.761719 1339.910156 1729.390625 1322.859375 C 1750.039062 1305.789062 1761.429688 1272.859375 1754.828125 1249.28125 L 1754.800781 1249.269531 "/>
<path fill-rule="evenodd" fill="rgb(97.264099%, 57.617188%, 12.939453%)" fill-opacity="1" d="M 1455.898438 2124.28125 C 1451.859375 2109.851562 1438.339844 2106.628906 1425.679688 2117.070312 C 1413.03125 2127.5 1406.050781 2147.699219 1410.101562 2162.148438 C 1414.148438 2176.578125 1427.679688 2179.828125 1440.320312 2169.378906 C 1452.988281 2158.921875 1459.960938 2138.75 1455.910156 2124.300781 L 1455.898438 2124.28125 "/>
<path fill-rule="evenodd" fill="rgb(97.264099%, 57.617188%, 12.939453%)" fill-opacity="1" d="M 1683.828125 1386.410156 C 1679.730469 1371.949219 1666.238281 1368.730469 1653.589844 1379.179688 C 1640.890625 1389.628906 1633.96875 1409.808594 1638 1424.261719 C 1642.019531 1438.679688 1655.589844 1441.941406 1668.238281 1431.488281 C 1680.851562 1421.03125 1687.859375 1400.859375 1683.828125 1386.421875 L 1683.828125 1386.410156 "/>
<path fill-rule="evenodd" fill="rgb(97.264099%, 57.617188%, 12.939453%)" fill-opacity="1" d="M 1831.101562 991.828125 C 1827 977.390625 1813.519531 974.160156 1800.871094 984.609375 C 1788.171875 995.050781 1781.21875 1015.25 1785.28125 1029.691406 C 1789.289062 1044.121094 1802.851562 1047.371094 1815.511719 1036.921875 C 1828.128906 1026.46875 1835.128906 1006.289062 1831.101562 991.851562 L 1831.101562 991.828125 "/>
</svg>
